<mxfile host="65bd71144e">
    <diagram id="HIP3nbAZw_EuaXWnEj3U" name="Page-1">
        <mxGraphModel dx="606" dy="523" grid="1" gridSize="10" guides="1" tooltips="1" connect="1" arrows="1" fold="1" page="1" pageScale="1" pageWidth="850" pageHeight="1100" math="0" shadow="0">
            <root>
                <mxCell id="0"/>
                <mxCell id="1" parent="0"/>
                <mxCell id="5" value="" style="edgeStyle=none;html=1;entryX=0.5;entryY=0;entryDx=0;entryDy=0;" parent="1" source="2" target="36" edge="1">
                    <mxGeometry relative="1" as="geometry">
                        <mxPoint x="270" y="180" as="targetPoint"/>
                    </mxGeometry>
                </mxCell>
                <mxCell id="2" value="Start" style="strokeWidth=2;html=1;shape=mxgraph.flowchart.terminator;whiteSpace=wrap;" parent="1" vertex="1">
                    <mxGeometry x="215" y="40" width="100" height="60" as="geometry"/>
                </mxCell>
                <mxCell id="3" value="Stop" style="strokeWidth=2;html=1;shape=mxgraph.flowchart.terminator;whiteSpace=wrap;" parent="1" vertex="1">
                    <mxGeometry x="215" y="1000" width="100" height="60" as="geometry"/>
                </mxCell>
                <mxCell id="7" style="edgeStyle=none;html=1;exitX=0.5;exitY=1;exitDx=0;exitDy=0;entryX=0.5;entryY=0;entryDx=0;entryDy=0;" parent="1" source="36" target="35" edge="1">
                    <mxGeometry relative="1" as="geometry">
                        <mxPoint x="265" y="260" as="sourcePoint"/>
                        <mxPoint x="263.18181818181813" y="340" as="targetPoint"/>
                    </mxGeometry>
                </mxCell>
                <mxCell id="13" style="edgeStyle=none;html=1;entryX=0.75;entryY=0;entryDx=0;entryDy=0;exitX=1;exitY=0.5;exitDx=0;exitDy=0;exitPerimeter=0;" parent="1" source="40" target="11" edge="1">
                    <mxGeometry relative="1" as="geometry">
                        <mxPoint x="480" y="590" as="targetPoint"/>
                        <Array as="points">
                            <mxPoint x="520" y="575"/>
                        </Array>
                        <mxPoint x="350" y="580" as="sourcePoint"/>
                    </mxGeometry>
                </mxCell>
                <mxCell id="14" style="edgeStyle=none;html=1;exitX=0.5;exitY=1;exitDx=0;exitDy=0;exitPerimeter=0;entryX=0.5;entryY=0;entryDx=0;entryDy=0;entryPerimeter=0;" parent="1" source="40" edge="1" target="41">
                    <mxGeometry relative="1" as="geometry">
                        <mxPoint x="265" y="760" as="targetPoint"/>
                        <mxPoint x="270" y="630" as="sourcePoint"/>
                    </mxGeometry>
                </mxCell>
                <mxCell id="16" style="edgeStyle=none;html=1;" parent="1" source="11" edge="1">
                    <mxGeometry relative="1" as="geometry">
                        <mxPoint x="260" y="680" as="targetPoint"/>
                    </mxGeometry>
                </mxCell>
                <mxCell id="11" value="&quot;Correct&quot;" style="shape=parallelogram;perimeter=parallelogramPerimeter;whiteSpace=wrap;html=1;fixedSize=1;" parent="1" vertex="1">
                    <mxGeometry x="430" y="650" width="120" height="60" as="geometry"/>
                </mxCell>
                <mxCell id="17" value="Yes" style="text;html=1;align=center;verticalAlign=middle;resizable=0;points=[];autosize=1;strokeColor=none;fillColor=none;" parent="1" vertex="1">
                    <mxGeometry x="337.5" y="590" width="40" height="30" as="geometry"/>
                </mxCell>
                <mxCell id="18" value="No" style="text;html=1;align=center;verticalAlign=middle;resizable=0;points=[];autosize=1;strokeColor=none;fillColor=none;" parent="1" vertex="1">
                    <mxGeometry x="205" y="640" width="40" height="30" as="geometry"/>
                </mxCell>
                <mxCell id="23" style="edgeStyle=none;html=1;entryX=0.75;entryY=0;entryDx=0;entryDy=0;exitX=1;exitY=0.5;exitDx=0;exitDy=0;exitPerimeter=0;" parent="1" source="41" target="22" edge="1">
                    <mxGeometry relative="1" as="geometry">
                        <Array as="points">
                            <mxPoint x="510" y="825"/>
                        </Array>
                        <mxPoint x="345" y="825" as="sourcePoint"/>
                    </mxGeometry>
                </mxCell>
                <mxCell id="29" style="edgeStyle=none;rounded=1;hachureGap=4;html=1;fontFamily=Architects Daughter;fontSource=https%3A%2F%2Ffonts.googleapis.com%2Fcss%3Ffamily%3DArchitects%2BDaughter;fontSize=16;exitX=0.5;exitY=1;exitDx=0;exitDy=0;exitPerimeter=0;" parent="1" source="41" edge="1">
                    <mxGeometry relative="1" as="geometry">
                        <mxPoint x="262.5" y="1000" as="targetPoint"/>
                        <mxPoint x="262.5" y="890" as="sourcePoint"/>
                    </mxGeometry>
                </mxCell>
                <mxCell id="30" style="edgeStyle=none;rounded=1;hachureGap=4;html=1;fontFamily=Architects Daughter;fontSource=https%3A%2F%2Ffonts.googleapis.com%2Fcss%3Ffamily%3DArchitects%2BDaughter;fontSize=16;" parent="1" source="22" edge="1">
                    <mxGeometry relative="1" as="geometry">
                        <mxPoint x="260" y="970" as="targetPoint"/>
                        <Array as="points">
                            <mxPoint x="480" y="970"/>
                        </Array>
                    </mxGeometry>
                </mxCell>
                <mxCell id="22" value="&quot;Wrong&quot;" style="shape=parallelogram;perimeter=parallelogramPerimeter;whiteSpace=wrap;html=1;fixedSize=1;" parent="1" vertex="1">
                    <mxGeometry x="420" y="870" width="120" height="60" as="geometry"/>
                </mxCell>
                <mxCell id="33" value="Yes&lt;br&gt;" style="text;html=1;align=center;verticalAlign=middle;resizable=0;points=[];autosize=1;strokeColor=none;fillColor=none;" parent="1" vertex="1">
                    <mxGeometry x="340" y="840" width="40" height="30" as="geometry"/>
                </mxCell>
                <mxCell id="34" value="No&lt;br&gt;" style="text;html=1;align=center;verticalAlign=middle;resizable=0;points=[];autosize=1;strokeColor=none;fillColor=none;" parent="1" vertex="1">
                    <mxGeometry x="205" y="885" width="40" height="30" as="geometry"/>
                </mxCell>
                <mxCell id="39" style="edgeStyle=none;html=1;entryX=0.5;entryY=0;entryDx=0;entryDy=0;entryPerimeter=0;" edge="1" parent="1" source="35" target="40">
                    <mxGeometry relative="1" as="geometry">
                        <mxPoint x="262.5" y="520" as="targetPoint"/>
                    </mxGeometry>
                </mxCell>
                <mxCell id="35" value="Get sliderValue" style="shape=parallelogram;html=1;strokeWidth=2;perimeter=parallelogramPerimeter;whiteSpace=wrap;rounded=1;arcSize=12;size=0.23;" vertex="1" parent="1">
                    <mxGeometry x="195" y="330" width="135" height="70" as="geometry"/>
                </mxCell>
                <mxCell id="36" value="Generate randomNumber" style="rounded=1;whiteSpace=wrap;html=1;absoluteArcSize=1;arcSize=14;strokeWidth=2;" vertex="1" parent="1">
                    <mxGeometry x="215" y="160" width="100" height="100" as="geometry"/>
                </mxCell>
                <mxCell id="40" value="if&amp;nbsp;&lt;br&gt;sliderValue&lt;br&gt;==&lt;br&gt;randomNumber" style="strokeWidth=2;html=1;shape=mxgraph.flowchart.decision;whiteSpace=wrap;rotation=0;" vertex="1" parent="1">
                    <mxGeometry x="187.5" y="500" width="150" height="150" as="geometry"/>
                </mxCell>
                <mxCell id="41" value="if&amp;nbsp;&lt;br&gt;sliderValue&lt;br&gt;!=&lt;br&gt;randomNumber" style="strokeWidth=2;html=1;shape=mxgraph.flowchart.decision;whiteSpace=wrap;rotation=0;" vertex="1" parent="1">
                    <mxGeometry x="190" y="750" width="150" height="150" as="geometry"/>
                </mxCell>
            </root>
        </mxGraphModel>
    </diagram>
</mxfile>